<svg width="22" height="23" viewBox="0 0 22 23" fill="none" xmlns="http://www.w3.org/2000/svg">
<path d="M7.5625 11.6027L8.61437 14.4077H6.51063L7.5625 11.6027ZM20.2812 4.43896V6.84521H1.71875V4.43896C1.71875 3.98312 1.89983 3.54595 2.22216 3.22363C2.54449 2.9013 2.98166 2.72021 3.4375 2.72021H18.5625C19.0183 2.72021 19.4555 2.9013 19.7778 3.22363C20.1002 3.54595 20.2812 3.98312 20.2812 4.43896ZM6.1875 4.78271C6.1875 4.64674 6.14718 4.51382 6.07164 4.40076C5.99609 4.2877 5.88872 4.19958 5.76309 4.14755C5.63747 4.09551 5.49924 4.0819 5.36588 4.10842C5.23251 4.13495 5.11001 4.20043 5.01386 4.29658C4.91772 4.39273 4.85224 4.51523 4.82571 4.64859C4.79918 4.78195 4.8128 4.92019 4.86483 5.04581C4.91687 5.17143 5.00499 5.27881 5.11805 5.35435C5.2311 5.42989 5.36403 5.47021 5.5 5.47021C5.68234 5.47021 5.8572 5.39778 5.98614 5.26885C6.11507 5.13992 6.1875 4.96505 6.1875 4.78271ZM8.9375 4.78271C8.9375 4.64674 8.89718 4.51382 8.82164 4.40076C8.74609 4.2877 8.63872 4.19958 8.51309 4.14755C8.38747 4.09551 8.24924 4.0819 8.11588 4.10842C7.98251 4.13495 7.86001 4.20043 7.76386 4.29658C7.66772 4.39273 7.60224 4.51523 7.57571 4.64859C7.54918 4.78195 7.5628 4.92019 7.61483 5.04581C7.66687 5.17143 7.75499 5.27881 7.86805 5.35435C7.9811 5.42989 8.11403 5.47021 8.25 5.47021C8.43234 5.47021 8.6072 5.39778 8.73614 5.26885C8.86507 5.13992 8.9375 4.96505 8.9375 4.78271ZM20.2812 7.53271V18.189C20.2812 18.6448 20.1002 19.082 19.7778 19.4043C19.4555 19.7266 19.0183 19.9077 18.5625 19.9077H3.4375C2.98166 19.9077 2.54449 19.7266 2.22216 19.4043C1.89983 19.082 1.71875 18.6448 1.71875 18.189V7.53271H20.2812ZM9.96875 16.0027L7.90625 10.5027C7.87728 10.4415 7.83154 10.3898 7.77434 10.3536C7.71713 10.3174 7.65083 10.2982 7.58312 10.2982C7.51542 10.2982 7.44912 10.3174 7.39191 10.3536C7.33471 10.3898 7.28897 10.4415 7.26 10.5027L5.1975 16.0027C5.16468 16.0884 5.16725 16.1836 5.20464 16.2674C5.24203 16.3512 5.31118 16.4168 5.39687 16.4496C5.48257 16.4824 5.5778 16.4798 5.6616 16.4425C5.74541 16.4051 5.81093 16.3359 5.84375 16.2502L6.25625 15.0952H8.86875L9.30187 16.2502C9.32781 16.3148 9.37239 16.3702 9.42993 16.4094C9.48748 16.4486 9.55538 16.4698 9.625 16.4702C9.66599 16.4768 9.70776 16.4768 9.74875 16.4702C9.7927 16.4528 9.83275 16.4269 9.86661 16.3939C9.90046 16.3609 9.92744 16.3215 9.94598 16.2781C9.96452 16.2346 9.97426 16.1879 9.97463 16.1406C9.97499 16.0933 9.96599 16.0465 9.94812 16.0027H9.96875ZM16.8438 13.3765C16.8419 12.5565 16.5154 11.7707 15.9356 11.1909C15.3558 10.6111 14.57 10.2845 13.75 10.2827H12.375C12.2838 10.2827 12.1964 10.3189 12.1319 10.3834C12.0675 10.4479 12.0312 10.5353 12.0312 10.6265V16.1265C12.0312 16.2176 12.0675 16.3051 12.1319 16.3695C12.1964 16.434 12.2838 16.4702 12.375 16.4702H13.75C14.57 16.4684 15.3558 16.1419 15.9356 15.5621C16.5154 14.9823 16.8419 14.1964 16.8438 13.3765ZM13.75 10.9702H12.7188V15.7827H13.75C14.3882 15.7827 15.0002 15.5292 15.4515 15.0779C15.9027 14.6267 16.1562 14.0146 16.1562 13.3765C16.1562 12.7383 15.9027 12.1262 15.4515 11.675C15.0002 11.2237 14.3882 10.9702 13.75 10.9702Z" fill="white"/>
</svg>
