<svg width="150" height="48" viewBox="0 0 150 48" fill="none" xmlns="http://www.w3.org/2000/svg">
<g clip-path="url(#clip0_14_10508)">
<path d="M79.0534 12.0124C79.0534 13.6994 77.6945 15.0584 76.0075 15.0584C74.3205 15.0584 72.9616 13.6994 72.9616 12.0124C72.9616 10.3255 74.2736 8.96651 76.0075 8.96651C77.7413 9.01337 79.0534 10.3723 79.0534 12.0124ZM66.4948 18.1511C66.4948 18.4323 66.4948 18.9009 66.4948 18.9009C66.4948 18.9009 65.0422 17.0265 61.9494 17.0265C56.8416 17.0265 52.8585 20.9159 52.8585 26.3048C52.8585 31.6469 56.7947 35.5832 61.9494 35.5832C65.089 35.5832 66.4948 33.6619 66.4948 33.6619V34.4585C66.4948 34.8334 66.776 35.1146 67.1509 35.1146H70.9466V17.4951C70.9466 17.4951 67.4789 17.4951 67.1509 17.4951C66.776 17.4951 66.4948 17.8231 66.4948 18.1511ZM66.4948 29.4445C65.7919 30.4754 64.3861 31.3657 62.6991 31.3657C59.7001 31.3657 57.4039 29.4913 57.4039 26.3048C57.4039 23.1183 59.7001 21.2439 62.6991 21.2439C64.3393 21.2439 65.8388 22.1811 66.4948 23.1652V29.4445ZM73.7582 17.4951H78.2568V35.1146H73.7582V17.4951ZM140.956 17.0265C137.863 17.0265 136.41 18.9009 136.41 18.9009V9.01337H131.912V35.1146C131.912 35.1146 135.38 35.1146 135.708 35.1146C136.082 35.1146 136.364 34.7866 136.364 34.4585V33.6619C136.364 33.6619 137.816 35.5832 140.909 35.5832C146.017 35.5832 150 31.6469 150 26.3048C150 20.9628 146.017 17.0265 140.956 17.0265ZM140.206 31.3189C138.472 31.3189 137.113 30.4285 136.41 29.3976V23.1183C137.113 22.1811 138.613 21.1971 140.206 21.1971C143.205 21.1971 145.501 23.0715 145.501 26.258C145.501 29.4445 143.205 31.3189 140.206 31.3189ZM129.569 24.6647V35.1614H125.07V25.1802C125.07 22.2748 124.133 21.1033 121.603 21.1033C120.244 21.1033 118.838 21.8062 117.947 22.8372V35.1146H113.449V17.4951H117.01C117.385 17.4951 117.666 17.8231 117.666 18.1511V18.9009C118.978 17.542 120.712 17.0265 122.446 17.0265C124.414 17.0265 126.054 17.5888 127.366 18.7135C128.96 20.0255 129.569 21.7125 129.569 24.6647ZM102.53 17.0265C99.4377 17.0265 97.985 18.9009 97.985 18.9009V9.01337H93.4864V35.1146C93.4864 35.1146 96.9541 35.1146 97.2821 35.1146C97.657 35.1146 97.9381 34.7866 97.9381 34.4585V33.6619C97.9381 33.6619 99.3908 35.5832 102.484 35.5832C107.591 35.5832 111.574 31.6469 111.574 26.3048C111.621 20.9628 107.638 17.0265 102.53 17.0265ZM101.781 31.3189C100.047 31.3189 98.6879 30.4285 97.985 29.3976V23.1183C98.6879 22.1811 100.187 21.1971 101.781 21.1971C104.78 21.1971 107.076 23.0715 107.076 26.258C107.076 29.4445 104.78 31.3189 101.781 31.3189ZM89.597 17.0265C90.9559 17.0265 91.6588 17.2608 91.6588 17.2608V21.4314C91.6588 21.4314 87.91 20.1661 85.567 22.8372V35.1614H81.0684V17.4951C81.0684 17.4951 84.5361 17.4951 84.8641 17.4951C85.239 17.4951 85.5201 17.8231 85.5201 18.1511V18.9009C86.3636 17.9168 88.1912 17.0265 89.597 17.0265ZM42.8772 33.5213C42.6429 32.959 42.4086 32.3498 42.1743 31.8344C41.7994 30.9909 41.4245 30.1942 41.0965 29.4445L41.0497 29.3976C37.8163 22.3686 34.3486 15.2458 30.6935 8.21674L30.5529 7.93558C30.1781 7.23268 29.8032 6.48291 29.4283 5.73315C28.9597 4.88966 28.4911 3.99931 27.7413 3.15583C26.2418 1.28142 24.0862 0.250488 21.7901 0.250488C19.447 0.250488 17.3383 1.28142 15.7919 3.06211C15.089 3.90559 14.5736 4.79594 14.105 5.63943C13.7301 6.38919 13.3552 7.13896 12.9803 7.84186L12.8397 8.12302C9.23149 15.1521 5.71696 22.2748 2.4836 29.3039L2.43674 29.3976C2.10871 30.1474 1.73383 30.944 1.35895 31.7875C1.12465 32.303 0.890345 32.8653 0.656044 33.4745C0.0468591 35.2083 -0.140582 36.8484 0.0937195 38.5354C0.609183 42.0499 2.9522 45.0021 6.18556 46.3142C7.40393 46.8297 8.66916 47.064 9.98125 47.064C10.3561 47.064 10.8247 47.0171 11.1996 46.9702C12.746 46.7828 14.3393 46.2673 15.8857 45.377C17.8069 44.2992 19.6345 42.7528 21.6963 40.5035C23.7582 42.7528 25.6326 44.2992 27.507 45.377C29.0534 46.2673 30.6467 46.7828 32.1931 46.9702C32.5679 47.0171 33.0365 47.064 33.4114 47.064C34.7235 47.064 36.0356 46.8297 37.2071 46.3142C40.4873 45.0021 42.7835 42.003 43.299 38.5354C43.6738 36.8953 43.4864 35.2552 42.8772 33.5213ZM21.7432 35.9581C19.2127 32.7716 17.5726 29.7725 17.0103 27.242C16.776 26.1643 16.7291 25.227 16.8697 24.3836C16.9634 23.6338 17.2446 22.9777 17.6195 22.4154C18.5098 21.1502 20.0094 20.3536 21.7432 20.3536C23.477 20.3536 25.0234 21.1033 25.8669 22.4154C26.2418 22.9777 26.523 23.6338 26.6167 24.3836C26.7573 25.227 26.7104 26.2111 26.4761 27.242C25.9138 29.7256 24.2737 32.7247 21.7432 35.9581ZM40.4405 38.1605C40.1125 40.5972 38.4723 42.7059 36.1762 43.6432C35.0515 44.1118 33.8332 44.2523 32.6148 44.1118C31.4433 43.9712 30.2718 43.5963 29.0534 42.8934C27.3664 41.9562 25.6795 40.5035 23.7113 38.3479C26.8041 34.5523 28.6785 31.0846 29.3814 27.9918C29.7095 26.5391 29.7563 25.227 29.6157 24.0087C29.4283 22.8372 29.0066 21.7594 28.3505 20.8222C26.8978 18.7135 24.4611 17.4951 21.7432 17.4951C19.0253 17.4951 16.5886 18.7603 15.1359 20.8222C14.4798 21.7594 14.0581 22.8372 13.8707 24.0087C13.6832 25.227 13.7301 26.586 14.105 27.9918C14.8079 31.0846 16.7291 34.5991 19.7751 38.3948C17.8538 40.5504 16.12 42.003 14.433 42.9402C13.2146 43.6432 12.0431 44.018 10.8716 44.1586C9.60637 44.2992 8.388 44.1118 7.31021 43.69C5.01406 42.7528 3.37394 40.6441 3.04592 38.2074C2.90534 37.0358 2.99906 35.8643 3.46766 34.5522C3.60825 34.0836 3.84255 33.615 4.07685 33.0527C4.40487 32.303 4.77975 31.5063 5.15464 30.7097L5.2015 30.616C8.43486 23.6338 11.9025 16.511 15.5108 9.57569L15.6514 9.29453C16.0262 8.59163 16.4011 7.84186 16.776 7.13896C17.1509 6.38919 17.5726 5.68629 18.0881 5.0771C19.0722 3.95245 20.3842 3.34327 21.8369 3.34327C23.2896 3.34327 24.6017 3.95245 25.5857 5.0771C26.1012 5.68629 26.523 6.38919 26.8978 7.13896C27.2727 7.84186 27.6476 8.59163 28.0225 9.29453L28.1631 9.57569C31.7245 16.5579 35.1921 23.6807 38.4255 30.6628V30.7097C38.8004 31.4595 39.1284 32.303 39.5033 33.0527C39.7376 33.615 39.9719 34.0836 40.1125 34.5522C40.4873 35.7706 40.6279 36.9421 40.4405 38.1605Z" fill="#333333"/>
</g>
<defs>
<clipPath id="clip0_14_10508">
<rect width="150" height="46.8135" fill="white" transform="translate(0 0.250488)"/>
</clipPath>
</defs>
</svg>
