<svg width="82" height="83" viewBox="0 0 82 83" fill="none" xmlns="http://www.w3.org/2000/svg">
<path d="M25.87 68.1777C22.3689 66.2299 19.2858 63.6115 16.7966 60.4722C14.3075 57.3328 12.461 53.7339 11.3628 49.881C10.2645 46.028 9.93581 41.9965 10.3956 38.0165C10.8554 34.0365 12.0945 30.1861 14.0424 26.685C15.9902 23.184 18.6086 20.1008 21.7479 17.6117C24.8873 15.1225 28.4862 13.2761 32.3391 12.1778C36.1921 11.0795 40.2236 10.7509 44.2036 11.2106C48.1836 11.6704 52.034 12.9096 55.5351 14.8574C59.0361 16.8053 62.1192 19.4236 64.6084 22.563C67.0975 25.7024 68.944 29.3013 70.0423 33.1542C71.1406 37.0072 71.4692 41.0387 71.0094 45.0187C70.5497 48.9986 69.3105 52.8491 67.3626 56.3501C65.4148 59.8512 62.7965 62.9343 59.6571 65.4235C56.5177 67.9126 52.9188 69.7591 49.0659 70.8574C45.2129 71.9556 41.1814 72.2843 37.2014 71.8245C33.2214 71.3647 29.371 70.1256 25.87 68.1777L25.87 68.1777Z" stroke="#522BD8" stroke-width="20.339"/>
<path d="M67.1236 26.2633C70.6837 32.4296 71.9749 39.6468 70.7736 46.6649C69.5723 53.683 65.9542 60.0599 60.5459 64.691C55.1377 69.3221 48.2799 71.9157 41.1606 72.0226C34.0412 72.1295 27.1087 69.743 21.5638 65.2763" stroke="#522BD8" stroke-width="20.339" stroke-linecap="round" stroke-linejoin="round"/>
</svg>
