<svg width="22" height="23" viewBox="0 0 22 23" fill="none" xmlns="http://www.w3.org/2000/svg">
<path d="M20.3333 4.48053C20.3333 4.1472 20.2 3.81387 19.9666 3.58053C19.7333 3.3472 19.4333 3.21387 19.0666 3.21387H1.59998C1.19998 3.21387 0.866646 3.38053 0.633313 3.68053C0.59998 3.7472 0.533313 3.81387 0.49998 3.88053C0.466646 3.9472 0.433313 4.01387 0.39998 4.11387C0.366646 4.21387 0.333313 4.3472 0.333313 4.48053V5.98053H20.3333V4.48053ZM3.29998 5.01387H2.73331C2.53331 5.01387 2.39998 4.8472 2.39998 4.68053C2.39998 4.48053 2.53331 4.3472 2.73331 4.3472H3.29998C3.49998 4.3472 3.63331 4.48053 3.63331 4.68053C3.63331 4.88053 3.46665 5.01387 3.29998 5.01387ZM5.86665 5.01387H5.29998C5.13331 5.01387 4.96665 4.8472 4.96665 4.68053C4.96665 4.48053 5.13331 4.3472 5.29998 4.3472H5.86665C6.03331 4.3472 6.19998 4.48053 6.19998 4.68053C6.19998 4.88053 6.06665 5.01387 5.86665 5.01387ZM8.43331 5.01387H7.86665C7.69998 5.01387 7.53331 4.8472 7.53331 4.68053C7.53331 4.48053 7.69998 4.3472 7.86665 4.3472H8.43331C8.59998 4.3472 8.76665 4.48053 8.76665 4.68053C8.76665 4.88053 8.63331 5.01387 8.43331 5.01387ZM17.9333 5.01387H10.7666C10.6 5.01387 10.4333 4.8472 10.4333 4.68053C10.4333 4.48053 10.5666 4.3472 10.7666 4.3472H17.9333C18.1 4.3472 18.2666 4.48053 18.2666 4.68053C18.2666 4.88053 18.1333 5.01387 17.9333 5.01387Z" fill="white"/>
<path d="M14.6333 17.2138C13.3333 17.2138 12.1333 16.7138 11.2 15.7804C10.2666 14.8804 9.76665 13.6471 9.76665 12.3471C9.76665 11.0471 10.2666 9.84709 11.2 8.91375C12.1 7.98042 13.3333 7.48042 14.6333 7.48042C15.9333 7.48042 17.1333 7.98042 18.0666 8.91375C18.9666 9.81375 19.5 11.0471 19.5 12.3471C19.5 12.8804 19.4333 13.3804 19.2666 13.8471L20.3333 14.9804V6.68042H0.333313V17.4138C0.333313 18.0804 0.89998 18.6471 1.59998 18.6471H17.8333L16.1333 16.9804C15.6666 17.1471 15.1666 17.2138 14.6333 17.2138ZM9.13331 16.1804H2.59998C2.39998 16.1804 2.26665 16.0471 2.26665 15.8471C2.26665 15.6804 2.39998 15.5138 2.59998 15.5138H9.16665C9.36665 15.5138 9.49998 15.6804 9.49998 15.8471C9.46665 16.0471 9.33331 16.1804 9.13331 16.1804ZM9.13331 13.8471H2.59998C2.39998 13.8471 2.26665 13.6804 2.26665 13.5138C2.26665 13.3471 2.39998 13.1804 2.59998 13.1804H9.16665C9.36665 13.1804 9.49998 13.3471 9.49998 13.5138C9.46665 13.6804 9.33331 13.8471 9.13331 13.8471ZM9.13331 11.4804H2.59998C2.39998 11.4804 2.26665 11.3471 2.26665 11.1471C2.26665 10.9471 2.39998 10.8138 2.59998 10.8138H9.16665C9.36665 10.8138 9.49998 10.9471 9.49998 11.1471C9.46665 11.3471 9.33331 11.4804 9.13331 11.4804ZM9.13331 9.14709H2.59998C2.39998 9.14709 2.26665 9.01375 2.26665 8.81375C2.26665 8.61375 2.39998 8.48042 2.59998 8.48042H9.16665C9.36665 8.48042 9.49998 8.61375 9.49998 8.81375C9.46665 8.98042 9.33331 9.14709 9.13331 9.14709Z" fill="white"/>
<path d="M14.6334 8.18042C13.5334 8.18042 12.4667 8.61375 11.6667 9.41375C10.8667 10.2138 10.4333 11.2471 10.4333 12.3804C10.4333 14.6804 12.3 16.5471 14.6 16.5471C16.9 16.5471 18.7667 14.6804 18.7667 12.3804C18.8 10.0471 16.9334 8.18042 14.6334 8.18042ZM14.6334 15.8804C12.7 15.8804 11.1334 14.3138 11.1334 12.3804C11.1334 10.4471 12.7 8.88042 14.6334 8.88042C16.5667 8.88042 18.1334 10.4471 18.1334 12.3804C18.1334 14.3138 16.5667 15.8804 14.6334 15.8804Z" fill="white"/>
<path d="M21.2333 16.8138L18.9666 14.5471C18.7333 15.0138 18.4333 15.4138 18.0666 15.8138C17.6999 16.1805 17.2666 16.4805 16.7999 16.7138L19.0666 18.9805C19.6666 19.5805 20.6333 19.5805 21.2333 18.9805C21.5333 18.6805 21.6666 18.3138 21.6666 17.9138C21.6666 17.4805 21.4999 17.0805 21.2333 16.8138Z" fill="white"/>
<path d="M16.5666 10.5472L15.1333 10.8805C14.9666 10.9138 14.8333 11.1138 14.9 11.2805C14.9333 11.4472 15.1333 11.5805 15.3 11.5138L15.9666 11.3472L14.9333 13.0472L13.1666 11.9805C13.1 11.9472 13 11.9138 12.9 11.9472C12.8 11.9805 12.7333 12.0472 12.7 12.1138L12 13.6805C11.9333 13.8472 12 14.0472 12.1666 14.1138C12.3333 14.1805 12.5333 14.1138 12.6 13.9472L13.1333 12.7138L14.8666 13.7472C15.0333 13.8472 15.2333 13.7805 15.3333 13.6472L16.5333 11.6805L16.7 12.3472C16.7333 12.5138 16.8666 12.6138 17.0333 12.6138H17.1C17.2666 12.5805 17.4 12.3805 17.3333 12.2138L17 10.7805C16.9333 10.6138 16.7333 10.5138 16.5666 10.5472Z" fill="white"/>
</svg>
