<svg width="51" height="43" viewBox="0 0 51 43" fill="none" xmlns="http://www.w3.org/2000/svg">
<path d="M39.8271 0.324219H11.5068C10.6979 0.324219 10.042 0.980078 10.042 1.78906V15.1771L23.2318 25.2266H28.1022L41.292 15.1772V1.78906C41.292 0.980078 40.6361 0.324219 39.8271 0.324219ZM32.0146 19.3672H19.3193C18.5104 19.3672 17.8545 18.7113 17.8545 17.9023C17.8545 17.0934 18.5104 16.4375 19.3193 16.4375H32.0146C32.8236 16.4375 33.4795 17.0934 33.4795 17.9023C33.4795 18.7113 32.8236 19.3672 32.0146 19.3672ZM35.4326 13.5078H15.9014C15.0924 13.5078 14.4365 12.852 14.4365 12.043C14.4365 11.234 15.0924 10.5781 15.9014 10.5781H35.4326C36.2416 10.5781 36.8975 11.234 36.8975 12.043C36.8975 12.852 36.2416 13.5078 35.4326 13.5078ZM35.4326 7.64844H15.9014C15.0924 7.64844 14.4365 6.99258 14.4365 6.18359C14.4365 5.37461 15.0924 4.71875 15.9014 4.71875H35.4326C36.2416 4.71875 36.8975 5.37461 36.8975 6.18359C36.8975 6.99258 36.2416 7.64844 35.4326 7.64844Z" fill="#AACE88"/>
<path d="M0.764648 11.792V40.7872L20.2807 26.6613L0.764648 11.792Z" fill="#AACE88"/>
<path d="M28.1223 28.1562H23.2119L2.7041 43H48.6301L28.1223 28.1562Z" fill="#AACE88"/>
<path d="M31.0532 26.6612L50.5692 40.7871V11.792L31.0532 26.6612Z" fill="#AACE88"/>
<path d="M2.26123 9.24873L7.1124 12.9448V5.8125L2.26123 9.24873Z" fill="#AACE88"/>
<path d="M49.0729 9.24873L44.2217 5.8125V12.9449L49.0729 9.24873Z" fill="#AACE88"/>
</svg>
