<svg width="18" height="18" viewBox="0 0 18 18" fill="none" xmlns="http://www.w3.org/2000/svg">
<path d="M9.00005 0.0374756C4.02951 0.0374756 0 4.06699 0 9.03753C0 13.4955 3.2447 17.1875 7.49902 17.9024V10.9152H5.32795V8.40077H7.49902V6.54673C7.49902 4.39552 8.81292 3.22323 10.7322 3.22323C11.6515 3.22323 12.4414 3.29173 12.6708 3.3219V5.57049L11.3396 5.57113C10.296 5.57113 10.0948 6.06693 10.0948 6.79474V8.39948H12.5849L12.2601 10.9139H10.0948V17.9625C14.5478 17.4206 18 13.6346 18 9.03496C18 4.06699 13.9705 0.0374756 9.00005 0.0374756Z" fill="#333333"/>
</svg>
