<svg width="72" height="24" viewBox="0 0 72 24" fill="none" xmlns="http://www.w3.org/2000/svg">
<path d="M59.7288 7.77285C61.1958 7.77285 62.385 6.58363 62.385 5.11665C62.385 3.64967 61.1958 2.46045 59.7288 2.46045C58.2619 2.46045 57.0726 3.64967 57.0726 5.11665C57.0726 6.58363 58.2619 7.77285 59.7288 7.77285Z" fill="#333333"/>
<path d="M21.7903 16.4434C23.0933 16.4434 23.8451 15.4661 23.795 14.5139C23.7699 14.0127 23.7198 13.687 23.6697 13.4364C22.8678 9.97832 20.0613 7.42236 16.7285 7.42236C12.7692 7.42236 9.56177 11.0057 9.56177 15.416C9.56177 19.8263 12.7692 23.4097 16.7285 23.4097C19.2093 23.4097 20.9884 22.5076 22.2664 21.0792C22.8929 20.3776 22.7676 19.3001 22.0158 18.7738C21.3894 18.3479 20.6126 18.4982 20.0362 18.9743C19.4849 19.4504 18.4325 20.4026 16.7285 20.4026C14.7238 20.4026 13.0198 18.6736 12.644 16.3933H21.7903V16.4434ZM16.7034 10.4544C18.5076 10.4544 20.0613 11.8577 20.6376 13.7872H12.7692C13.3456 11.8327 14.8992 10.4544 16.7034 10.4544Z" fill="#333333"/>
<path d="M9.71211 9.00114C9.71211 8.24938 9.16083 7.64798 8.45919 7.52269C6.2791 7.19693 4.22431 7.9988 3.04657 9.47725V9.27678C3.04657 8.34962 2.29481 7.77327 1.54306 7.77327C0.716129 7.77327 0.0395508 8.44985 0.0395508 9.27678V21.5554C0.0395508 22.3573 0.640948 23.0589 1.44282 23.1091C2.31986 23.1592 3.04657 22.4826 3.04657 21.6055V15.2658C3.04657 12.4592 5.15148 10.1538 8.05826 10.4796C8.15849 10.4796 8.25872 10.4796 8.35896 10.4796C9.11071 10.4295 9.71211 9.77795 9.71211 9.00114Z" fill="#333333"/>
<path d="M61.2324 10.6046C61.2324 9.77765 60.5558 9.10107 59.7289 9.10107C58.9019 9.10107 58.2253 9.77765 58.2253 10.6046C58.2253 10.6547 58.2253 21.1291 58.2253 21.6053C58.2253 22.4322 58.9019 23.1088 59.7289 23.1088C60.5558 23.1088 61.2324 22.4322 61.2324 21.6053C61.2324 21.1542 61.2324 10.6798 61.2324 10.6046Z" fill="#333333"/>
<path d="M38.8801 2.28525C38.8801 1.45832 38.2036 0.781738 37.3766 0.781738C36.5497 0.781738 35.8731 1.45832 35.8731 2.28525V8.97586C34.8457 7.94847 33.5677 7.44729 32.0392 7.44729C28.0799 7.44729 24.8724 11.0307 24.8724 15.4409C24.8724 19.8512 28.0799 23.4346 32.0392 23.4346C33.5677 23.4346 34.8708 22.9084 35.8982 21.881C36.0235 22.5826 36.6499 23.1088 37.3766 23.1088C38.2036 23.1088 38.8801 22.4323 38.8801 21.6053V2.28525ZM32.0642 20.4526C29.7588 20.4526 27.9045 18.2224 27.9045 15.4409C27.9045 12.6845 29.7588 10.4293 32.0642 10.4293C34.3696 10.4293 36.2239 12.6595 36.2239 15.4409C36.2239 18.2224 34.3445 20.4526 32.0642 20.4526Z" fill="#333333"/>
<path d="M54.5668 2.28525C54.5668 1.45832 53.8902 0.781738 53.0633 0.781738C52.2363 0.781738 51.5597 1.45832 51.5597 2.28525V8.97586C50.5324 7.94847 49.2544 7.44729 47.7258 7.44729C43.7666 7.44729 40.5591 11.0307 40.5591 15.4409C40.5591 19.8512 43.7666 23.4346 47.7258 23.4346C49.2544 23.4346 50.5574 22.9084 51.5848 21.881C51.7101 22.5826 52.3366 23.1088 53.0633 23.1088C53.8902 23.1088 54.5668 22.4323 54.5668 21.6053V2.28525ZM47.7258 20.4526C45.4204 20.4526 43.5661 18.2224 43.5661 15.4409C43.5661 12.6845 45.4204 10.4293 47.7258 10.4293C50.0312 10.4293 51.8855 12.6595 51.8855 15.4409C51.8855 18.2224 50.0312 20.4526 47.7258 20.4526Z" fill="#333333"/>
<path d="M68.8501 21.6303V10.4542H70.1782C70.8798 10.4542 71.5063 9.928 71.5564 9.2013C71.6065 8.42449 70.98 7.77297 70.2283 7.77297H68.8501V5.66806C68.8501 4.86619 68.2487 4.16455 67.4468 4.11443C66.5698 4.06431 65.8431 4.74089 65.8431 5.61794V7.79803H64.5901C63.8885 7.79803 63.262 8.32425 63.2119 9.05095C63.1618 9.82776 63.7883 10.4793 64.54 10.4793H65.818V21.6554C65.818 22.4823 66.4946 23.1589 67.3215 23.1589C68.1986 23.1087 68.8501 22.4572 68.8501 21.6303Z" fill="#333333"/>
</svg>
