<svg width="28" height="28" viewBox="0 0 28 28" fill="none" xmlns="http://www.w3.org/2000/svg">
<path d="M14.0001 0C6.26813 0 0 6.29434 0 14.0586C0 21.0223 5.04731 26.7893 11.6651 27.9061V16.9916H8.28792V13.064H11.6651V10.1678C11.6651 6.80752 13.709 4.97634 16.6946 4.97634C18.1245 4.97634 19.3533 5.08333 19.7101 5.13046V8.64289L17.6393 8.6439C16.016 8.6439 15.7031 9.41836 15.7031 10.5552V13.0619H19.5765L19.0713 16.9896H15.7031V28C22.6299 27.1534 28 21.2394 28 14.0546C28 6.29434 21.7319 0 14.0001 0Z" fill="#333333"/>
</svg>
