<svg width="29" height="26" viewBox="0 0 29 26" fill="none" xmlns="http://www.w3.org/2000/svg">
<path d="M28.0395 13.6571C28.0395 11.9531 26.6613 10.6 24.9823 10.6C24.1554 10.6 23.4037 10.9258 22.8524 11.452C20.7475 9.94847 17.8657 8.97119 14.6583 8.8459L16.0615 2.28058L20.6222 3.25786C20.6723 4.41055 21.6245 5.33771 22.8023 5.33771C24.0051 5.33771 24.9823 4.36043 24.9823 3.15763C24.9823 1.95482 24.0051 0.977539 22.8023 0.977539C21.9503 0.977539 21.1985 1.47871 20.8477 2.2054L15.7608 1.12789C15.6105 1.10283 15.4601 1.12789 15.3599 1.20307C15.2346 1.27824 15.1594 1.40353 15.1344 1.55388L13.5807 8.87096C10.3231 8.97119 7.3913 9.94847 5.26132 11.477C4.71004 10.9508 3.95828 10.625 3.13135 10.625C1.42738 10.625 0.0742188 12.0033 0.0742188 13.6822C0.0742188 14.9351 0.825974 15.9876 1.87843 16.4637C1.82831 16.7644 1.80325 17.0651 1.80325 17.3908C1.80325 22.1018 7.29106 25.9358 14.0568 25.9358C20.8226 25.9358 26.3104 22.1269 26.3104 17.3908C26.3104 17.0901 26.2854 16.7644 26.2353 16.4637C27.2877 15.9876 28.0395 14.91 28.0395 13.6571ZM7.04048 15.8372C7.04048 14.6344 8.01776 13.6571 9.22056 13.6571C10.4234 13.6571 11.4007 14.6344 11.4007 15.8372C11.4007 17.04 10.4234 18.0173 9.22056 18.0173C8.01776 18.0424 7.04048 17.04 7.04048 15.8372ZM19.244 21.6257C17.7404 23.1292 14.8838 23.2295 14.0568 23.2295C13.2049 23.2295 10.3482 23.1042 8.86974 21.6257C8.64422 21.4002 8.64422 21.0494 8.86974 20.8238C9.09527 20.5983 9.44609 20.5983 9.67162 20.8238C10.6238 21.7761 12.6285 22.1018 14.0568 22.1018C15.4852 22.1018 17.5149 21.7761 18.4421 20.8238C18.6676 20.5983 19.0184 20.5983 19.244 20.8238C19.4444 21.0494 19.4444 21.4002 19.244 21.6257ZM18.843 18.0424C17.6402 18.0424 16.6629 17.0651 16.6629 15.8623C16.6629 14.6595 17.6402 13.6822 18.843 13.6822C20.0458 13.6822 21.0231 14.6595 21.0231 15.8623C21.0231 17.04 20.0458 18.0424 18.843 18.0424Z" fill="#333333"/>
</svg>
