<svg width="51" height="50" viewBox="0 0 51 50" fill="none" xmlns="http://www.w3.org/2000/svg">
<g clip-path="url(#clip0_18_3972)">
<path d="M12.8703 26.52H10.6281C10.0398 26.52 9.50882 26.8702 9.27612 27.4096L3.06885 41.8631L17.8104 34.334C16.0457 31.8923 14.2997 29.1991 12.8703 26.52Z" fill="#AACE88"/>
<path d="M41.3904 27.4096C41.1581 26.8702 40.6267 26.52 40.0388 26.52H37.7965C35.0973 31.5783 31.1647 36.8056 28.663 39.6815C26.9037 41.6995 23.7611 41.6972 22.0045 39.6815C21.8248 39.4751 20.8867 38.3891 19.5947 36.719L16.937 38.077L26.9903 48.1108L46.0393 38.2353L41.3904 27.4096Z" fill="#AACE88"/>
<path d="M1.2555 46.0873L0.453654 47.9546C0.0386149 48.9209 0.749674 50 1.8052 50H23.3922C23.5272 49.8997 23.5288 49.9058 24.2536 49.5301L14.1854 39.4829L1.2555 46.0873Z" fill="#AACE88"/>
<path d="M50.2135 47.9546L47.2014 40.9409L29.7271 50.0001H48.862C49.9152 50.0001 50.6293 48.9228 50.2135 47.9546Z" fill="#AACE88"/>
<path d="M26.8039 13.2151C26.8039 12.4056 26.144 11.7476 25.3334 11.7476C24.5224 11.7476 23.8628 12.4056 23.8628 13.2151C23.8628 14.0242 24.5224 14.6826 25.3334 14.6826C26.144 14.6826 26.8039 14.0242 26.8039 13.2151Z" fill="#AACE88"/>
<path d="M26.443 37.658C26.9382 37.0896 38.5681 23.6367 38.5681 14.3891C38.5681 -4.67983 12.0986 -4.91253 12.0986 14.3891C12.0986 23.6367 23.7285 37.0896 24.2236 37.658C24.81 38.3305 25.8579 38.3297 26.443 37.658ZM20.9216 13.2153C20.9216 10.7876 22.9007 8.81275 25.3333 8.81275C27.7656 8.81275 29.7447 10.7876 29.7447 13.2153C29.7447 15.6426 27.7656 17.6175 25.3333 17.6175C22.9007 17.6175 20.9216 15.6426 20.9216 13.2153Z" fill="#AACE88"/>
</g>
<defs>
<clipPath id="clip0_18_3972">
<rect width="50" height="50" fill="white" transform="translate(0.333496)"/>
</clipPath>
</defs>
</svg>
