<svg width="16" height="16" viewBox="0 0 16 16" fill="none" xmlns="http://www.w3.org/2000/svg">
<g clip-path="url(#clip0_11_3703)">
<path d="M3.38656 4.34696C4.48768 2.90564 6.20992 1.98753 8.00014 2.00178C9.81233 1.9884 11.5222 2.92029 12.6136 4.34705L14.2521 3.193C12.7848 1.22721 10.4316 -0.0137298 8.00014 0.000114652C5.5527 -0.0110109 3.21077 1.23402 1.74829 3.19303L3.38656 4.34696Z" fill="white"/>
<path d="M14.3366 4.28027L13.567 4.82236C14.1992 5.92586 14.5309 7.1847 14.5309 8.50058C14.5309 8.88151 14.5025 9.25878 14.4468 9.63026C14.2645 9.46754 14.047 9.33819 13.8006 9.25556L13.4399 9.13464L13.6438 8.52677L12.6402 8.19032C12.1473 8.02503 11.6136 8.29066 11.4483 8.78366L10.4575 11.7387C10.2923 12.2317 10.5579 12.7654 11.0509 12.9306L12.0544 13.2671L12.2582 12.6592L12.6189 12.7801C13.5922 13.1065 14.6457 12.582 14.972 11.6087C15.0305 11.4342 15.0612 11.2571 15.0674 11.0821C15.3333 10.2531 15.4685 9.38513 15.4685 8.50058C15.4685 6.98954 15.0789 5.54356 14.3366 4.28027Z" fill="white"/>
<path d="M7.00004 14.0003V14.5314H4.83599C3.90475 14.5314 3.22938 13.7133 3.26156 12.8154C3.3016 12.8049 3.74203 12.6592 3.74203 12.6592L3.94585 13.2671L4.94937 12.9306C5.44236 12.7653 5.708 12.2317 5.54271 11.7387L4.55191 8.78363C4.38662 8.29063 3.853 8.025 3.36001 8.19028L2.35649 8.52674L2.56031 9.13461L2.19967 9.25553C1.95328 9.33812 1.73577 9.46751 1.55342 9.63023C1.49769 9.25878 1.46932 8.88151 1.46932 8.50055C1.46932 7.18467 1.80105 5.92583 2.43327 4.82233L1.66364 4.28027C0.921383 5.54356 0.531738 6.98954 0.531738 8.50058C0.531738 9.38513 0.666933 10.2531 0.932852 11.0821C0.938978 11.2571 0.969698 11.4342 1.0282 11.6087C1.23556 12.2271 1.73661 12.6639 2.32399 12.8168C2.26523 14.2357 3.4032 15.4689 4.83596 15.4689H7V16.0001H9.00011V14.0003H7.00004Z" fill="white"/>
</g>
<defs>
<clipPath id="clip0_11_3703">
<rect width="16" height="16" fill="white"/>
</clipPath>
</defs>
</svg>
