<svg width="51" height="50" viewBox="0 0 51 50" fill="none" xmlns="http://www.w3.org/2000/svg">
<g clip-path="url(#clip0_18_4003)">
<path d="M39.8271 7.32422H11.5068C10.6979 7.32422 10.042 7.98008 10.042 8.78906V22.1771L23.2318 32.2266H28.1022L41.292 22.1772V8.78906C41.292 7.98008 40.6361 7.32422 39.8271 7.32422ZM32.0146 26.3672H19.3193C18.5104 26.3672 17.8545 25.7113 17.8545 24.9023C17.8545 24.0934 18.5104 23.4375 19.3193 23.4375H32.0146C32.8236 23.4375 33.4795 24.0934 33.4795 24.9023C33.4795 25.7113 32.8236 26.3672 32.0146 26.3672ZM35.4326 20.5078H15.9014C15.0924 20.5078 14.4365 19.852 14.4365 19.043C14.4365 18.234 15.0924 17.5781 15.9014 17.5781H35.4326C36.2416 17.5781 36.8975 18.234 36.8975 19.043C36.8975 19.852 36.2416 20.5078 35.4326 20.5078ZM35.4326 14.6484H15.9014C15.0924 14.6484 14.4365 13.9926 14.4365 13.1836C14.4365 12.3746 15.0924 11.7188 15.9014 11.7188H35.4326C36.2416 11.7188 36.8975 12.3746 36.8975 13.1836C36.8975 13.9926 36.2416 14.6484 35.4326 14.6484Z" fill="#AACE88"/>
<path d="M0.764648 18.792V47.7872L20.2807 33.6613L0.764648 18.792Z" fill="#AACE88"/>
<path d="M28.1223 35.1562H23.2119L2.7041 50H48.6301L28.1223 35.1562Z" fill="#AACE88"/>
<path d="M31.0532 33.6612L50.5692 47.7871V18.792L31.0532 33.6612Z" fill="#AACE88"/>
<path d="M2.26123 16.2487L7.1124 19.9448V12.8125L2.26123 16.2487Z" fill="#AACE88"/>
<path d="M49.0729 16.2487L44.2217 12.8125V19.9449L49.0729 16.2487Z" fill="#AACE88"/>
<path d="M26.5135 0.269531C26.0063 -0.0898438 25.3273 -0.0898438 24.8201 0.269531L18.9966 4.39453H32.337L26.5135 0.269531Z" fill="#AACE88"/>
</g>
<defs>
<clipPath id="clip0_18_4003">
<rect width="50" height="50" fill="white" transform="translate(0.666992)"/>
</clipPath>
</defs>
</svg>
