<svg width="50" height="50" viewBox="0 0 50 50" fill="none" xmlns="http://www.w3.org/2000/svg">
<g clip-path="url(#clip0_18_3988)">
<path d="M42.7709 20.9816C42.831 13.9322 36.827 7.46979 29.3871 6.57616C29.2391 6.55861 29.0779 6.5319 28.9072 6.50364C28.5389 6.44262 28.158 6.37988 27.7737 6.37988C26.2489 6.37988 25.8413 7.451 25.734 8.08982C25.6296 8.71094 25.7291 9.23252 26.0293 9.64075C26.5343 10.3274 27.4228 10.4493 28.1364 10.547C28.3456 10.5758 28.543 10.6027 28.7082 10.6398C35.3927 12.1335 37.6434 14.4817 38.7434 21.1094C38.7703 21.2713 38.7824 21.4709 38.7953 21.6825C38.8433 22.4748 38.9433 24.1231 40.7153 24.1231H40.7155C40.863 24.1231 41.0215 24.1103 41.1866 24.0852C42.8368 23.8344 42.785 22.3277 42.7602 21.6038C42.7532 21.3999 42.7465 21.2071 42.7638 21.0788C42.7684 21.0465 42.7708 21.014 42.7709 20.9816Z" fill="#AACE88"/>
<path d="M27.3413 3.98882C27.5393 4.00311 27.7267 4.01677 27.8827 4.04068C38.8593 5.72873 43.9073 10.9293 45.3062 21.9918C45.33 22.1798 45.3337 22.4092 45.3376 22.652C45.3515 23.5163 45.3803 25.3143 47.3112 25.3516L47.3711 25.3522C47.9767 25.3522 48.4584 25.1696 48.8029 24.809C49.404 24.1803 49.3621 23.2463 49.3282 22.4957C49.32 22.3115 49.3121 22.138 49.3141 21.9862C49.4537 10.6722 39.6602 0.412733 28.3564 0.0312112C28.3095 0.0296584 28.2647 0.0321429 28.2196 0.0385093C28.1973 0.0417702 28.1562 0.0458075 28.0857 0.0458075C27.973 0.0458075 27.8343 0.0360248 27.6873 0.026087C27.5095 0.0139752 27.3079 0 27.1036 0C25.3034 0 24.9612 1.2795 24.9174 2.04224C24.8164 3.80497 26.5217 3.92904 27.3413 3.98882Z" fill="#AACE88"/>
<path d="M44.7766 36.2892C44.5432 36.1109 44.3019 35.9264 44.0759 35.7444C42.8775 34.78 41.6025 33.891 40.3694 33.0312C40.1135 32.853 39.8576 32.6746 39.6027 32.4957C38.0231 31.3862 36.6031 30.8471 35.2615 30.8471C33.4545 30.8471 31.879 31.8455 30.5787 33.8143C30.0027 34.6871 29.3037 35.1115 28.4424 35.1115C27.9331 35.1115 27.3544 34.9662 26.7225 34.6794C21.6242 32.3674 17.9837 28.8227 15.9019 24.1437C14.8955 21.8822 15.2218 20.4039 16.9929 19.2008C17.9986 18.5182 19.8707 17.2474 19.7381 14.8138C19.5879 12.0503 13.4904 3.73527 10.9213 2.79086C9.83356 2.39086 8.6907 2.38714 7.51834 2.78155C4.56492 3.7744 2.44551 5.51804 1.38868 7.82363C0.367406 10.0514 0.413524 12.6673 1.52206 15.3884C4.72672 23.2558 9.23231 30.1151 14.9141 35.7755C20.4756 41.3165 27.3112 45.8553 35.2308 49.2654C35.9446 49.5725 36.6933 49.7401 37.2401 49.8623C37.4264 49.9042 37.5873 49.9399 37.7045 49.9721C37.769 49.9896 37.8354 49.9991 37.902 49.9997L37.9646 50C37.9646 50 37.9646 50 37.9649 50C41.6898 50 46.1623 46.5963 47.5359 42.7159C48.7393 39.318 46.5421 37.6385 44.7766 36.2892Z" fill="#AACE88"/>
<path d="M28.9887 12.976C28.3509 12.9921 27.0238 13.025 26.5581 14.3767C26.3402 15.0084 26.3663 15.5569 26.6357 16.0069C27.0311 16.6671 27.7885 16.8694 28.4775 16.9805C30.9761 17.3814 32.2593 18.7631 32.516 21.3283C32.6353 22.5244 33.4407 23.3597 34.4749 23.3597C34.5513 23.3597 34.6295 23.3552 34.7073 23.3457C35.9511 23.1977 36.554 22.2839 36.4995 20.6298C36.5194 18.9036 35.616 16.9438 34.0795 15.3828C32.5377 13.817 30.6792 12.9351 28.9887 12.976Z" fill="#AACE88"/>
</g>
<defs>
<clipPath id="clip0_18_3988">
<rect width="50" height="50" fill="white"/>
</clipPath>
</defs>
</svg>
