<svg width="18" height="18" viewBox="0 0 18 18" fill="none" xmlns="http://www.w3.org/2000/svg">
<g clip-path="url(#clip0_1_4761)">
<path d="M10.7227 9C10.7227 9.95142 9.95142 10.7227 9 10.7227C8.04858 10.7227 7.27734 9.95142 7.27734 9C7.27734 8.04858 8.04858 7.27734 9 7.27734C9.95142 7.27734 10.7227 8.04858 10.7227 9Z" fill="#333333"/>
<path d="M13.0286 5.95216C12.9458 5.72777 12.8137 5.52466 12.642 5.35794C12.4753 5.18628 12.2724 5.05417 12.0478 4.97136C11.8657 4.90063 11.5922 4.81645 11.0883 4.79352C10.5432 4.76866 10.3798 4.76331 8.99994 4.76331C7.61992 4.76331 7.4565 4.76852 6.91158 4.79338C6.40771 4.81645 6.13402 4.90063 5.95206 4.97136C5.72752 5.05417 5.52441 5.18628 5.35783 5.35794C5.18617 5.52466 5.05406 5.72763 4.97112 5.95216C4.90039 6.13426 4.81621 6.40796 4.79327 6.91182C4.76842 7.45674 4.76306 7.62016 4.76306 9.00018C4.76306 10.3801 4.76842 10.5435 4.79327 11.0885C4.81621 11.5924 4.90039 11.866 4.97112 12.0481C5.05406 12.2726 5.18604 12.4756 5.3577 12.6423C5.52441 12.814 5.72739 12.9461 5.95192 13.0289C6.13402 13.0997 6.40771 13.1839 6.91158 13.2068C7.4565 13.2317 7.61978 13.2369 8.9998 13.2369C10.38 13.2369 10.5434 13.2317 11.0882 13.2068C11.592 13.1839 11.8657 13.0997 12.0478 13.0289C12.4985 12.855 12.8548 12.4988 13.0286 12.0481C13.0994 11.866 13.1835 11.5924 13.2066 11.0885C13.2315 10.5435 13.2367 10.3801 13.2367 9.00018C13.2367 7.62016 13.2315 7.45674 13.2066 6.91182C13.1837 6.40796 13.0995 6.13426 13.0286 5.95216ZM8.99994 11.6538C7.53423 11.6538 6.34605 10.4658 6.34605 9.00005C6.34605 7.53433 7.53423 6.3463 8.99994 6.3463C10.4655 6.3463 11.6537 7.53433 11.6537 9.00005C11.6537 10.4658 10.4655 11.6538 8.99994 11.6538ZM11.7586 6.86156C11.4161 6.86156 11.1384 6.58388 11.1384 6.24138C11.1384 5.89888 11.4161 5.6212 11.7586 5.6212C12.1011 5.6212 12.3788 5.89888 12.3788 6.24138C12.3786 6.58388 12.1011 6.86156 11.7586 6.86156Z" fill="#333333"/>
<path d="M9 0C4.0302 0 0 4.0302 0 9C0 13.9698 4.0302 18 9 18C13.9698 18 18 13.9698 18 9C18 4.0302 13.9698 0 9 0ZM14.1368 11.1307C14.1118 11.6808 14.0243 12.0564 13.8966 12.3852C13.6281 13.0794 13.0794 13.6281 12.3852 13.8966C12.0565 14.0243 11.6808 14.1117 11.1308 14.1368C10.5797 14.1619 10.4036 14.168 9.00014 14.168C7.5965 14.168 7.42058 14.1619 6.86934 14.1368C6.31934 14.1117 5.9436 14.0243 5.61497 13.8966C5.27 13.7668 4.95772 13.5634 4.69954 13.3005C4.43669 13.0424 4.23331 12.73 4.10353 12.3852C3.97581 12.0565 3.88834 11.6808 3.86334 11.1308C3.83794 10.5796 3.83203 10.4035 3.83203 9C3.83203 7.5965 3.83794 7.42044 3.8632 6.86934C3.8882 6.3192 3.97554 5.9436 4.10326 5.61484C4.23303 5.27 4.43655 4.95758 4.69954 4.69954C4.95758 4.43655 5.27 4.23317 5.61484 4.10339C5.9436 3.97568 6.3192 3.88834 6.86934 3.8632C7.42044 3.83807 7.5965 3.83203 9 3.83203C10.4035 3.83203 10.5796 3.83807 11.1307 3.86334C11.6808 3.88834 12.0564 3.97568 12.3852 4.10326C12.73 4.23303 13.0424 4.43655 13.3006 4.69954C13.5634 4.95772 13.767 5.27 13.8966 5.61484C14.0245 5.9436 14.1118 6.3192 14.1369 6.86934C14.1621 7.42044 14.168 7.5965 14.168 9C14.168 10.4035 14.1621 10.5796 14.1368 11.1307Z" fill="#333333"/>
</g>
<defs>
<clipPath id="clip0_1_4761">
<rect width="18" height="18" fill="white"/>
</clipPath>
</defs>
</svg>
