<svg width="22" height="23" viewBox="0 0 22 23" fill="none" xmlns="http://www.w3.org/2000/svg">
<g clip-path="url(#clip0_18_1873)">
<path d="M21.9054 4.05433L18.2617 0.408427C18.2318 0.37848 18.1962 0.354724 18.1571 0.338516C18.118 0.322307 18.0761 0.313965 18.0337 0.313965C17.9914 0.313965 17.9495 0.322307 17.9104 0.338516C17.8713 0.354724 17.8357 0.37848 17.8058 0.408427L16.8923 1.31979C16.7516 1.46098 16.6725 1.65219 16.6725 1.85153C16.6725 2.05087 16.7516 2.24208 16.8923 2.38327L19.9306 5.42159C20.0717 5.56242 20.263 5.64151 20.4623 5.64151C20.6617 5.64151 20.8529 5.56242 20.9941 5.42159L21.9054 4.51022C21.9354 4.4803 21.9591 4.44476 21.9754 4.40565C21.9916 4.36654 21.9999 4.32461 21.9999 4.28228C21.9999 4.23994 21.9916 4.19801 21.9754 4.1589C21.9591 4.11979 21.9354 4.08425 21.9054 4.05433Z" fill="white"/>
<path d="M16.5387 6.53502C16.6138 6.4599 16.6649 6.36419 16.6856 6.26001C16.7063 6.15582 16.6957 6.04783 16.655 5.9497C16.6144 5.85156 16.5455 5.76769 16.4572 5.70867C16.3689 5.64966 16.265 5.61816 16.1588 5.61816C16.0526 5.61816 15.9488 5.64966 15.8604 5.70867C15.7721 5.76769 15.7033 5.85156 15.6626 5.9497C15.6219 6.04783 15.6113 6.15582 15.632 6.26001C15.6527 6.36419 15.7039 6.4599 15.779 6.53502C15.8798 6.63557 16.0164 6.69203 16.1588 6.69203C16.3012 6.69203 16.4378 6.63557 16.5387 6.53502Z" fill="white"/>
<path d="M16.4364 2.83928C16.3569 2.75936 16.2872 2.67021 16.2289 2.57373L14.346 3.29775C14.3031 3.31435 14.2642 3.33991 14.2319 3.37274C14.1997 3.40557 14.1749 3.4449 14.159 3.48811L12.506 8.01615C12.4572 8.15078 12.4477 8.29653 12.4786 8.43637C12.5095 8.57621 12.5795 8.70438 12.6805 8.80592L12.8665 8.99154L15.1271 6.73096C14.9892 6.48182 14.9459 6.1912 15.0054 5.91269C15.0648 5.63418 15.223 5.38655 15.4507 5.21547C15.6783 5.0444 15.9602 4.9614 16.2442 4.9818C16.5283 5.00219 16.7954 5.1246 16.9963 5.32645C17.1972 5.5283 17.3184 5.79598 17.3374 6.08013C17.3565 6.36428 17.2722 6.64574 17.1 6.87261C16.9279 7.09948 16.6795 7.25646 16.4007 7.31461C16.1219 7.37275 15.8315 7.32814 15.583 7.189L13.3224 9.44959L13.5085 9.63564C13.65 9.7766 13.8416 9.85572 14.0413 9.85564C14.1293 9.85578 14.2165 9.84036 14.2991 9.8101L18.8272 8.15709C18.8704 8.14128 18.9097 8.11643 18.9425 8.08419C18.9754 8.05196 19.0009 8.01309 19.0175 7.97018L19.7415 6.08771C19.645 6.02928 19.5559 5.95945 19.476 5.87975L16.4364 2.83928Z" fill="white"/>
<path d="M5.80078 17.2651C5.80078 17.2936 5.8121 17.3209 5.83224 17.3411C5.85239 17.3612 5.87971 17.3726 5.9082 17.3726H10.2051C10.2336 17.3726 10.2609 17.3612 10.281 17.3411C10.3012 17.3209 10.3125 17.2936 10.3125 17.2651V16.728H5.80078V17.2651Z" fill="white"/>
<path d="M9.05996 13.1535L8.05664 11.4536L7.05332 13.1535C7.01282 13.2215 6.94869 13.2722 6.87316 13.296C6.79764 13.3198 6.716 13.3149 6.64383 13.2824L5.11328 12.5949L5.72344 14.7944H10.3898L11 12.5974L9.46945 13.2849C9.39697 13.3172 9.31515 13.3216 9.23961 13.2974C9.16407 13.2731 9.10012 13.2219 9.05996 13.1535Z" fill="white"/>
<path d="M2.36328 8.56396V19.9507H13.75V10.4666C13.4862 10.4103 13.2441 10.2794 13.0526 10.0894L12.2246 9.26135C12.0343 9.07009 11.9033 8.82792 11.8473 8.56396H2.36328ZM10.957 17.2651C10.9568 17.4645 10.8775 17.6556 10.7365 17.7966C10.5956 17.9376 10.4044 18.0169 10.2051 18.0171H5.9082C5.70884 18.0169 5.51771 17.9376 5.37674 17.7966C5.23577 17.6556 5.15648 17.4645 5.15625 17.2651V16.4058C5.15625 16.3203 5.1902 16.2383 5.25064 16.1779C5.31108 16.1174 5.39305 16.0835 5.47852 16.0835H10.6348C10.7202 16.0835 10.8022 16.1174 10.8626 16.1779C10.9231 16.2383 10.957 16.3203 10.957 16.4058V17.2651ZM11.8048 12.1089L10.9454 15.2026C10.9265 15.2705 10.8859 15.3303 10.8298 15.373C10.7737 15.4157 10.7052 15.4388 10.6348 15.439H5.47852C5.4081 15.4389 5.33965 15.4158 5.28357 15.3732C5.22749 15.3306 5.18686 15.2709 5.16785 15.2031L4.30848 12.1093C4.29208 12.0503 4.29282 11.9879 4.31061 11.9293C4.32841 11.8708 4.36251 11.8185 4.40895 11.7786C4.45538 11.7387 4.51221 11.7128 4.5728 11.7041C4.63338 11.6953 4.69522 11.704 4.75105 11.729L6.64469 12.5777L7.77734 10.6561C7.80582 10.6078 7.84641 10.5678 7.89509 10.54C7.94377 10.5122 7.99886 10.4976 8.05492 10.4976C8.11098 10.4976 8.16607 10.5122 8.21475 10.54C8.26343 10.5678 8.30402 10.6078 8.3325 10.6561L9.46688 12.5777L11.3605 11.729C11.4163 11.704 11.4782 11.6953 11.5388 11.7041C11.5993 11.7128 11.6562 11.7387 11.7026 11.7786C11.749 11.8185 11.7832 11.8708 11.801 11.9293C11.8187 11.9879 11.8195 12.0503 11.8031 12.1093L11.8048 12.1089Z" fill="white"/>
<path d="M14.3945 10.4546V20.2729C14.3945 20.3584 14.3606 20.4404 14.3001 20.5008C14.2397 20.5613 14.1577 20.5952 14.0723 20.5952H2.04102C1.95555 20.5952 1.87358 20.5613 1.81314 20.5008C1.7527 20.4404 1.71875 20.3584 1.71875 20.2729V8.2417C1.71875 8.15623 1.7527 8.07426 1.81314 8.01382C1.87358 7.95339 1.95555 7.91943 2.04102 7.91943H11.8624C11.8731 7.87646 11.8856 7.83607 11.9002 7.79525L12.4824 6.20068H1.18164C0.86839 6.20114 0.568099 6.32578 0.346597 6.54728C0.125095 6.76878 0.000454647 7.06907 0 7.38232L0 21.1323C0.000454647 21.4456 0.125095 21.7459 0.346597 21.9674C0.568099 22.1889 0.86839 22.3135 1.18164 22.314H14.9316C15.2449 22.3135 15.5452 22.1889 15.7667 21.9674C15.9882 21.7459 16.1128 21.4456 16.1133 21.1323V9.83154L14.5187 10.4116C14.4779 10.4284 14.4375 10.4413 14.3945 10.4546Z" fill="white"/>
</g>
<defs>
<clipPath id="clip0_18_1873">
<rect width="22" height="22" fill="white" transform="translate(0 0.313965)"/>
</clipPath>
</defs>
</svg>
