<svg width="22" height="23" viewBox="0 0 22 23" fill="none" xmlns="http://www.w3.org/2000/svg">
<path fill-rule="evenodd" clip-rule="evenodd" d="M5.71755 14.8613L7.5276 17.9964C7.7825 18.4379 7.62983 19.0077 7.18832 19.2626C6.74682 19.5175 6.17705 19.3649 5.92212 18.9233L3.87651 15.3802C4.49036 15.2085 5.10215 15.0276 5.7175 14.8613L5.71755 14.8613ZM18.5331 11.5899C18.4307 11.5311 18.3954 11.4003 18.4543 11.2979C18.5131 11.1954 18.6439 11.1601 18.7463 11.219L20.7172 12.3569C20.8196 12.4157 20.855 12.5465 20.7961 12.6489C20.7372 12.7514 20.6065 12.7867 20.504 12.7278L18.5331 11.5899ZM17.4799 6.49013C17.421 6.59257 17.2902 6.62789 17.1878 6.56903C17.0854 6.51016 17.05 6.3794 17.1089 6.27697L18.2468 4.30608C18.3057 4.20364 18.4364 4.16832 18.5389 4.22719C18.6413 4.28605 18.6766 4.41681 18.6178 4.51924L17.4799 6.49013ZM19.0623 8.82265C18.9478 8.85324 18.8302 8.78522 18.7996 8.67076C18.7691 8.55629 18.8371 8.43864 18.9515 8.40809L21.1498 7.81907C21.2642 7.78848 21.3819 7.8565 21.4124 7.97097C21.443 8.08544 21.375 8.20308 21.2605 8.23363L19.0623 8.82265ZM12.9166 3.26971C12.479 3.38697 12.2169 3.8409 12.3342 4.27849L15.3966 15.7075C15.5138 16.1451 15.9677 16.4072 16.4053 16.29C16.8429 16.1727 17.105 15.7187 16.9878 15.2812L13.9254 3.85211C13.8082 3.41456 13.3542 3.15249 12.9166 3.26971ZM6.70514 14.1709L5.57549 9.95505C4.4424 10.3061 3.28062 10.5602 2.13455 10.8673C1.01182 11.1681 0.339362 12.3328 0.66051 13.5313C0.981659 14.7297 2.14633 15.4021 3.26906 15.1013C4.41516 14.7942 5.54825 14.4333 6.70514 14.1709ZM5.98442 9.82305C9.12054 8.76799 11.1674 7.00383 12.1892 5.39735L14.7115 14.8111C13.0234 13.9307 10.3687 13.4264 7.12525 14.0807L5.98442 9.82301V9.82305ZM15.5238 8.15711L16.6241 8.16686C16.722 8.16772 16.8043 8.23149 16.8297 8.3261L17.266 9.95453C17.2914 10.0491 17.252 10.1455 17.1676 10.1952L16.2196 10.7538L15.5238 8.15711Z" fill="white"/>
</svg>
