<svg width="150" height="46" viewBox="0 0 150 46" fill="none" xmlns="http://www.w3.org/2000/svg">
<g clip-path="url(#clip0_14_10496)">
<path d="M36.3885 20.1427C29.2464 15.9011 17.4656 15.5111 10.6475 17.5804C9.55259 17.9125 8.39483 17.2944 8.06307 16.1996C7.73131 15.1042 8.34874 13.9472 9.44437 13.6143C17.2711 11.2384 30.2817 11.6974 38.5039 16.5782C39.4889 17.1627 39.8119 18.4345 39.228 19.4179C38.6438 20.4026 37.3709 20.7272 36.3885 20.1427ZM36.1546 26.4248C35.6538 27.238 34.5907 27.4928 33.7787 26.9938C27.8242 23.3337 18.7445 22.2734 11.6999 24.4116C10.7864 24.6877 9.82151 24.1727 9.54412 23.2608C9.26877 22.3473 9.7841 21.3841 10.696 21.1064C18.7434 18.6644 28.7474 19.8472 35.5863 24.05C36.3983 24.55 36.6539 25.6137 36.1546 26.4248ZM33.4434 32.4581C33.0455 33.1109 32.1951 33.3157 31.5448 32.9177C26.3416 29.7378 19.7927 29.0194 12.0801 30.7812C11.3367 30.9517 10.5961 30.4858 10.4265 29.7428C10.2563 28.9996 10.7203 28.259 11.4652 28.0894C19.9053 26.1599 27.1453 26.9904 32.9854 30.559C33.6366 30.9566 33.8416 31.8073 33.4434 32.4581ZM23.2821 0.500018C11.0453 0.500018 1.125 10.4198 1.125 22.6566C1.125 34.8945 11.0453 44.814 23.2821 44.814C35.5194 44.814 45.4391 34.8945 45.4391 22.6566C45.4391 10.4198 35.5194 0.500018 23.2821 0.500018Z" fill="#333333"/>
<path d="M61.4066 20.9548C57.581 20.0425 56.8997 19.4022 56.8997 18.0571C56.8997 16.7858 58.0967 15.9306 59.8763 15.9306C61.6014 15.9306 63.3116 16.5802 65.1052 17.9174C65.1595 17.9579 65.2275 17.974 65.2944 17.9634C65.3614 17.9534 65.4204 17.9169 65.4598 17.8613L67.3277 15.2282C67.4045 15.12 67.3836 14.9702 67.2801 14.8874C65.1457 13.1748 62.7422 12.3421 59.9329 12.3421C55.8022 12.3421 52.917 14.8207 52.917 18.3677C52.917 22.1712 55.4059 23.5178 59.7069 24.5573C63.3677 25.4005 63.9855 26.1069 63.9855 27.3699C63.9855 28.7692 62.7362 29.6392 60.7256 29.6392C58.4928 29.6392 56.6711 28.8871 54.6336 27.1225C54.583 27.0791 54.5137 27.0591 54.4497 27.0627C54.3825 27.0683 54.3208 27.0995 54.278 27.151L52.1835 29.6437C52.0957 29.7472 52.1068 29.9017 52.2081 29.9911C54.5791 32.1075 57.4945 33.2256 60.6409 33.2256C65.092 33.2256 67.9683 30.7933 67.9683 27.0291C67.9683 23.8479 66.0675 22.0884 61.4066 20.9548Z" fill="#333333"/>
<path d="M81.2696 25.2186C81.2696 27.905 79.6149 29.7795 77.2456 29.7795C74.9032 29.7795 73.1363 27.8198 73.1363 25.2186C73.1363 22.6179 74.9032 20.6579 77.2456 20.6579C79.5768 20.6579 81.2696 22.5755 81.2696 25.2186ZM78.0385 17.1819C76.1092 17.1819 74.5267 17.9418 73.2218 19.4989V17.7463C73.2218 17.6079 73.1096 17.4952 72.9712 17.4952H69.5459C69.4076 17.4952 69.2957 17.6079 69.2957 17.7463V37.2202C69.2957 37.3585 69.4076 37.4712 69.5459 37.4712H72.9712C73.1096 37.4712 73.2218 37.3585 73.2218 37.2202V31.0734C74.527 32.5381 76.1097 33.2535 78.0385 33.2535C81.6234 33.2535 85.2524 30.4939 85.2524 25.2186C85.2524 19.9423 81.6234 17.1819 78.0385 17.1819Z" fill="#333333"/>
<path d="M94.5546 29.8074C92.099 29.8074 90.2477 27.8343 90.2477 25.2184C90.2477 22.5915 92.035 20.6851 94.498 20.6851C96.9694 20.6851 98.8332 22.658 98.8332 25.2757C98.8332 27.9024 97.0337 29.8074 94.5546 29.8074ZM94.5546 17.1817C89.9379 17.1817 86.321 20.7367 86.321 25.2757C86.321 29.7655 89.913 33.2832 94.498 33.2832C99.1311 33.2832 102.759 29.7402 102.759 25.2184C102.759 20.7118 99.156 17.1817 94.5546 17.1817Z" fill="#333333"/>
<path d="M112.618 17.4948H108.849V13.6409C108.849 13.5025 108.737 13.3901 108.599 13.3901H105.174C105.035 13.3901 104.922 13.5025 104.922 13.6409V17.4948H103.275C103.137 17.4948 103.026 17.6075 103.026 17.7459V20.6898C103.026 20.8281 103.137 20.9407 103.275 20.9407H104.922V28.5586C104.922 31.637 106.454 33.1978 109.476 33.1978C110.705 33.1978 111.724 32.944 112.685 32.3993C112.763 32.3556 112.812 32.2715 112.812 32.182V29.3786C112.812 29.292 112.767 29.2105 112.693 29.165C112.618 29.1182 112.525 29.1158 112.449 29.1537C111.789 29.4856 111.151 29.6389 110.438 29.6389C109.339 29.6389 108.849 29.1401 108.849 28.0217V20.9407H112.618C112.756 20.9407 112.868 20.8281 112.868 20.6898V17.7459C112.868 17.6075 112.756 17.4948 112.618 17.4948Z" fill="#333333"/>
<path d="M125.751 17.5103V17.0369C125.751 15.6444 126.285 15.0234 127.483 15.0234C128.197 15.0234 128.77 15.1653 129.413 15.3796C129.492 15.4044 129.574 15.392 129.639 15.3446C129.705 15.2973 129.742 15.2213 129.742 15.1409V12.2543C129.742 12.144 129.671 12.0464 129.565 12.0141C128.887 11.8122 128.018 11.6048 126.718 11.6048C123.554 11.6048 121.882 13.3865 121.882 16.7554V17.4804H120.236C120.098 17.4804 119.985 17.5928 119.985 17.7312V20.6902C119.985 20.8285 120.098 20.9411 120.236 20.9411H121.882V32.6912C121.882 32.8296 121.993 32.9421 122.131 32.9421H125.557C125.695 32.9421 125.808 32.8296 125.808 32.6912V20.9411H129.006L133.905 32.6881C133.349 33.9223 132.802 34.1679 132.056 34.1679C131.452 34.1679 130.817 33.9877 130.167 33.6321C130.106 33.5984 130.033 33.593 129.967 33.6133C129.902 33.6366 129.847 33.6851 129.819 33.7488L128.658 36.2959C128.603 36.4162 128.65 36.5576 128.766 36.62C129.978 37.2764 131.072 37.5566 132.424 37.5566C134.954 37.5566 136.352 36.3782 137.584 33.2085L143.527 17.8521C143.557 17.7748 143.548 17.6878 143.501 17.619C143.454 17.5513 143.378 17.5103 143.295 17.5103H139.729C139.622 17.5103 139.526 17.578 139.491 17.6783L135.838 28.1129L131.837 17.6714C131.8 17.5743 131.707 17.5103 131.603 17.5103H125.751Z" fill="#333333"/>
<path d="M118.138 17.495H114.712C114.574 17.495 114.461 17.6077 114.461 17.7461V32.691C114.461 32.8294 114.574 32.9419 114.712 32.9419H118.138C118.276 32.9419 118.388 32.8294 118.388 32.691V17.7461C118.388 17.6077 118.276 17.495 118.138 17.495Z" fill="#333333"/>
<path d="M116.442 10.6902C115.085 10.6902 113.984 11.789 113.984 13.1458C113.984 14.5036 115.085 15.6035 116.442 15.6035C117.799 15.6035 118.899 14.5036 118.899 13.1458C118.899 11.789 117.799 10.6902 116.442 10.6902Z" fill="#333333"/>
<path d="M146.592 18.9818H145.964V19.7822H146.592C146.905 19.7822 147.092 19.6289 147.092 19.3818C147.092 19.1215 146.905 18.9818 146.592 18.9818ZM146.999 20.1236L147.681 21.0783H147.106L146.492 20.2026H145.964V21.0783H145.483V18.5477H146.611C147.199 18.5477 147.586 18.8486 147.586 19.3549C147.586 19.7697 147.346 20.0232 146.999 20.1236ZM146.464 17.7058C145.23 17.7058 144.295 18.6872 144.295 19.8894C144.295 21.0908 145.223 22.0592 146.452 22.0592C147.686 22.0592 148.621 21.0783 148.621 19.8756C148.621 18.6742 147.693 17.7058 146.464 17.7058ZM146.452 22.3003C145.096 22.3003 144.041 21.2115 144.041 19.8894C144.041 18.5671 145.11 17.4659 146.464 17.4659C147.82 17.4659 148.875 18.5546 148.875 19.8756C148.875 21.1979 147.807 22.3003 146.452 22.3003Z" fill="#333333"/>
</g>
<defs>
<clipPath id="clip0_14_10496">
<rect width="150" height="44.9897" fill="white" transform="translate(0 0.162109)"/>
</clipPath>
</defs>
</svg>
