<svg width="41" height="41" viewBox="0 0 41 41" fill="none" xmlns="http://www.w3.org/2000/svg">
<path d="M20 0.5L25.4018 15.0982L40 20.5L25.4018 25.9018L20 40.5L14.5982 25.9018L0 20.5L14.5982 15.0982L20 0.5Z" fill="url(#paint0_linear_11_2996)"/>
<path d="M34.6992 3L36.1847 6.64955L40.1992 8L36.1847 9.35045L34.6992 13L33.2137 9.35045L29.1992 8L33.2137 6.64955L34.6992 3Z" fill="url(#paint1_linear_11_2996)"/>
<path d="M8.49922 29L9.39052 31.1897L11.7992 32L9.39052 32.8103L8.49922 35L7.60792 32.8103L5.19922 32L7.60792 31.1897L8.49922 29Z" fill="url(#paint2_linear_11_2996)"/>
<defs>
<linearGradient id="paint0_linear_11_2996" x1="0" y1="0.5" x2="40" y2="40.5" gradientUnits="userSpaceOnUse">
<stop stop-color="#E9D6FF"/>
<stop offset="1" stop-color="white"/>
</linearGradient>
<linearGradient id="paint1_linear_11_2996" x1="29.1992" y1="3" x2="39.154" y2="13.9502" gradientUnits="userSpaceOnUse">
<stop stop-color="#E9D6FF"/>
<stop offset="1" stop-color="white"/>
</linearGradient>
<linearGradient id="paint2_linear_11_2996" x1="5.19922" y1="29" x2="11.1721" y2="35.5701" gradientUnits="userSpaceOnUse">
<stop stop-color="#E9D6FF"/>
<stop offset="1" stop-color="white"/>
</linearGradient>
</defs>
</svg>
