<svg width="28" height="28" viewBox="0 0 28 28" fill="none" xmlns="http://www.w3.org/2000/svg">
<path d="M13.7931 0.207031L17.5185 10.2747L27.5862 14.0001L17.5185 17.7255L13.7931 27.7932L10.0677 17.7255L0 14.0001L10.0677 10.2747L13.7931 0.207031Z" fill="url(#paint0_linear_18_2027)"/>
<path d="M23.9306 1.93115L24.955 4.44808L27.7237 5.37943L24.955 6.31078L23.9306 8.8277L22.9061 6.31078L20.1375 5.37943L22.9061 4.44808L23.9306 1.93115Z" fill="url(#paint1_linear_18_2027)"/>
<path d="M5.86156 19.8623L6.47624 21.3725L8.13742 21.9313L6.47624 22.4901L5.86156 24.0002L5.24687 22.4901L3.58569 21.9313L5.24687 21.3725L5.86156 19.8623Z" fill="url(#paint2_linear_18_2027)"/>
<defs>
<linearGradient id="paint0_linear_18_2027" x1="0" y1="0.207031" x2="27.5862" y2="27.7932" gradientUnits="userSpaceOnUse">
<stop stop-color="#E9D6FF"/>
<stop offset="1" stop-color="white"/>
</linearGradient>
<linearGradient id="paint1_linear_18_2027" x1="20.1375" y1="1.93115" x2="27.0028" y2="9.48303" gradientUnits="userSpaceOnUse">
<stop stop-color="#E9D6FF"/>
<stop offset="1" stop-color="white"/>
</linearGradient>
<linearGradient id="paint2_linear_18_2027" x1="3.58569" y1="19.8623" x2="7.7049" y2="24.3934" gradientUnits="userSpaceOnUse">
<stop stop-color="#E9D6FF"/>
<stop offset="1" stop-color="white"/>
</linearGradient>
</defs>
</svg>
