<svg width="150" height="72" viewBox="0 0 150 72" fill="none" xmlns="http://www.w3.org/2000/svg">
<path fill-rule="evenodd" clip-rule="evenodd" d="M132.692 36.3465C132.692 28.1414 128.718 21.667 121.122 21.667C113.494 21.667 108.878 28.1414 108.878 36.2824C108.878 45.9298 114.327 50.8016 122.147 50.8016C125.962 50.8016 128.846 49.9362 131.026 48.7183V42.308C128.846 43.3978 126.346 44.0708 123.173 44.0708C120.064 44.0708 117.308 42.9811 116.955 39.199H132.628C132.628 38.7824 132.692 37.1157 132.692 36.3465ZM116.859 33.3016C116.859 29.6798 119.07 28.1734 121.09 28.1734C123.045 28.1734 125.128 29.6798 125.128 33.3016H116.859Z" fill="#333333"/>
<path fill-rule="evenodd" clip-rule="evenodd" d="M96.5063 21.667C93.3653 21.667 91.3461 23.1414 90.2243 24.167L89.8076 22.1798H82.7563V59.5516L90.7692 57.8529L90.8012 48.7824C91.9551 49.6157 93.6538 50.8016 96.4743 50.8016C102.211 50.8016 107.436 46.1862 107.436 36.026C107.404 26.7311 102.115 21.667 96.5063 21.667ZM94.5833 43.7503C92.6922 43.7503 91.5704 43.0772 90.8012 42.2439L90.7692 30.3529C91.6025 29.4234 92.7563 28.7824 94.5833 28.7824C97.4999 28.7824 99.5192 32.0516 99.5192 36.2503C99.5192 40.5452 97.532 43.7503 94.5833 43.7503Z" fill="#333333"/>
<path fill-rule="evenodd" clip-rule="evenodd" d="M71.7307 19.7758L79.7756 18.045V11.5386L71.7307 13.2373V19.7758Z" fill="#333333"/>
<path d="M79.7756 22.2114H71.7307V50.2563H79.7756V22.2114Z" fill="#333333"/>
<path fill-rule="evenodd" clip-rule="evenodd" d="M63.109 24.5835L62.5962 22.2117H55.6731V50.2565H63.6859V31.2501C65.5769 28.7822 68.7821 29.2309 69.7757 29.5835V22.2117C68.75 21.8271 65 21.1219 63.109 24.5835Z" fill="#333333"/>
<path fill-rule="evenodd" clip-rule="evenodd" d="M47.0833 15.2563L39.2628 16.923L39.2307 42.5961C39.2307 47.3397 42.7884 50.8333 47.532 50.8333C50.1602 50.8333 52.0833 50.3525 53.141 49.7756V43.2692C52.1153 43.6858 47.0512 45.1602 47.0512 40.4166V29.0384H53.141V22.2115H47.0512L47.0833 15.2563Z" fill="#333333"/>
<path fill-rule="evenodd" clip-rule="evenodd" d="M25.4166 30.3529C25.4166 29.1029 26.4422 28.6221 28.1409 28.6221C30.5768 28.6221 33.6538 29.3593 36.0897 30.6734V23.1414C33.4294 22.0837 30.8012 21.667 28.1409 21.667C21.6345 21.667 17.3076 25.0644 17.3076 30.7375C17.3076 39.5837 29.4871 38.1734 29.4871 41.9875C29.4871 43.4619 28.205 43.9426 26.4102 43.9426C23.7499 43.9426 20.3525 42.8529 17.6602 41.3785V49.0067C20.6409 50.2888 23.6538 50.8337 26.4102 50.8337C33.0768 50.8337 37.6602 47.5324 37.6602 41.7952C37.6281 32.2439 25.4166 33.9426 25.4166 30.3529Z" fill="#333333"/>
</svg>
