<svg width="1416" height="654" viewBox="0 0 1416 654" fill="none" xmlns="http://www.w3.org/2000/svg">
<path d="M150.675 570.995C18.3828 485.564 437.849 203.357 376.881 85.8949" stroke="#BBBBBB" stroke-opacity="0.5" stroke-width="1.27775"/>
<path d="M115.89 554.774C-16.4024 469.343 403.064 187.137 342.096 69.6742" stroke="#BBBBBB" stroke-opacity="0.5" stroke-width="1.27775"/>
<path d="M81.1028 538.554C-51.1895 453.123 368.277 170.916 307.309 53.4535" stroke="#BBBBBB" stroke-opacity="0.5" stroke-width="1.27775"/>
<path d="M46.3156 522.331C-85.9766 436.9 333.49 154.693 272.522 37.2308" stroke="#BBBBBB" stroke-opacity="0.5" stroke-width="1.27775"/>
<path d="M1128.84 640.876C975.994 542.691 1459.11 215.971 1388.45 80.635" stroke="#BBBBBB" stroke-opacity="0.5" stroke-width="1.47402"/>
<path d="M1088.67 622.261C935.82 524.075 1418.93 197.355 1348.27 62.0197" stroke="#BBBBBB" stroke-opacity="0.5" stroke-width="1.47402"/>
<path d="M1048.49 603.644C895.644 505.458 1378.76 178.738 1308.1 43.4026" stroke="#BBBBBB" stroke-opacity="0.5" stroke-width="1.47402"/>
<path d="M1008.32 585.029C855.469 486.843 1338.58 160.123 1267.92 24.7873" stroke="#BBBBBB" stroke-opacity="0.5" stroke-width="1.47402"/>
</svg>
